<svg width="18" height="18" viewBox="0 0 18 18" fill="none" xmlns="http://www.w3.org/2000/svg">
<path d="M9.95825 15.5633L4.49614 9.90278H16.4523C17.0219 9.90278 17.4842 9.42367 17.4842 8.83333C17.4842 8.243 17.0219 7.76389 16.4523 7.76389H4.49614L9.95825 2.10332C10.3617 1.68517 10.3617 1.00821 9.95825 0.591126C9.55476 0.174042 8.90153 0.172973 8.49907 0.591126L1.27543 8.07724C1.17636 8.1799 1.10206 8.29754 1.0515 8.42374C0.947271 8.68575 0.947271 8.98199 1.0515 9.244C1.10103 9.36806 1.1743 9.48355 1.27027 9.58515C1.27233 9.58729 1.27337 9.58836 1.27543 9.5905L8.49907 17.0766C8.90256 17.4948 9.55579 17.4948 9.95825 17.0766C10.3607 16.6585 10.3617 15.9815 9.95825 15.5644V15.5633Z" fill="#4E4E4E"/>
</svg>
