<svg width="19" height="20" viewBox="0 0 19 20" fill="none" xmlns="http://www.w3.org/2000/svg">
<path d="M9.0455 2.63029L15.0042 8.80546L1.96108 8.80546C1.33966 8.80546 0.835316 9.32813 0.835316 9.97213C0.835316 10.6161 1.33966 11.1388 1.96108 11.1388L15.0042 11.1388L9.0455 17.314C8.60533 17.7701 8.60533 18.5086 9.0455 18.9636C9.48567 19.4186 10.1983 19.4198 10.6373 18.9636L18.5177 10.797C18.6257 10.685 18.7068 10.5566 18.762 10.419C18.8757 10.1331 18.8757 9.80996 18.762 9.52413C18.7079 9.38879 18.628 9.26279 18.5233 9.15196C18.521 9.14963 18.5199 9.14846 18.5177 9.14613L10.6373 0.979462C10.1972 0.523294 9.48455 0.523294 9.0455 0.979462C8.60645 1.43563 8.60533 2.17413 9.0455 2.62913V2.63029Z" fill="#4E4E4E"/>
</svg>
