<svg width="18" height="18" viewBox="0 0 18 18" fill="none" xmlns="http://www.w3.org/2000/svg">
<path d="M12.2202 1.71975L2.09523 11.8447C2.00748 11.9317 1.93773 12.0457 1.90173 12.1777L0.776725 16.3027C0.742225 16.425 0.739975 16.5622 0.776725 16.6972C0.885475 17.097 1.29798 17.3325 1.69773 17.2237L5.82273 16.0987C5.94198 16.0672 6.05898 16.002 6.15573 15.9052L16.2807 5.78025C16.5545 5.5065 16.763 5.18925 16.9032 4.8495C17.0487 4.49775 17.1215 4.1235 17.1215 3.75C17.1215 3.3765 17.0487 3.00225 16.9032 2.6505C16.763 2.3115 16.5545 1.99425 16.2807 1.71975C16.007 1.44525 15.6897 1.2375 15.35 1.09725C14.9982 0.950998 14.624 0.878998 14.2505 0.878998C13.877 0.878998 13.5027 0.951748 13.151 1.09725C12.812 1.2375 12.4947 1.446 12.2202 1.71975ZM13.2807 2.78025C13.4127 2.64825 13.5642 2.54925 13.7247 2.4825C13.892 2.4135 14.0712 2.37825 14.2505 2.37825C14.4297 2.37825 14.609 2.4135 14.7762 2.4825C14.9367 2.54925 15.0875 2.6475 15.2202 2.78025C15.353 2.913 15.4512 3.06375 15.518 3.22425C15.587 3.3915 15.6215 3.57075 15.6215 3.75C15.6215 3.92925 15.5862 4.1085 15.5172 4.27575C15.4505 4.43625 15.3522 4.587 15.2195 4.71975L5.23623 14.7037L2.56923 15.4312L3.29673 12.765L13.2807 2.78025Z" fill="#4E4E4E"/>
</svg>
